<svg width="259" height="489" viewBox="0 0 259 489" fill="none" xmlns="http://www.w3.org/2000/svg">
<path d="M76.3364 118.019C78.4449 117.525 76.9569 116.092 81.3364 115.519C85.7158 114.946 84.1701 125.865 84.3364 132.019C84.5028 138.173 84.6101 143.553 82.3364 147.019C80.0626 150.484 80.5952 150.198 77.3364 151.519C74.0776 152.839 69.3147 146.841 66.3364 149.019C63.3581 151.197 65.2232 153.327 63.3364 156.019C61.4495 158.711 61.8042 158.182 56.3364 162.019C50.8686 165.856 40.4856 166.895 32.8364 170.519C25.1871 174.143 20.278 175.608 16.8364 179.519C13.3948 183.43 15.7038 179.996 12.3364 186.519C8.96895 193.042 9.76949 207.342 8.33637 215.519C6.90325 223.695 7.13154 221.592 5.83637 228.519C4.5412 235.446 2.41959 243.259 1.83637 251.019C1.25315 258.779 -0.854433 262.562 1.83637 268.019C4.52718 273.476 8.86733 271.369 12.3364 277.519C15.8054 283.669 12.3364 292.001 12.3364 299.519V316.019C12.3364 322.853 11.5753 326.75 12.3364 334.519C13.0975 342.288 15.3935 348.387 16.8364 355.519C18.2792 362.651 18.1261 364.737 19.8364 371.019C21.5466 377.301 24.0939 382.632 25.8364 387.519C27.5789 392.406 29.656 393.408 28.8364 396.019C28.0167 398.63 26.7605 397.76 25.8364 400.019C24.9122 402.278 24.7228 405.515 25.8364 407.519C26.9499 409.523 28.3137 409.1 28.8364 410.519C29.359 411.938 28.1675 412.092 28.8364 414.019C29.5052 415.946 31.2106 418.969 34.8364 417.519C37.3364 416.519 34.8364 426.519 34.8364 431.019C34.8364 452.519 216.04 515.378 213.836 473.519C211.633 431.66 208.105 453.094 207.336 443.519C206.567 433.944 208.578 433.732 207.336 425.019C206.095 416.306 200.404 408.523 198.336 400.019C196.268 391.515 197.258 391.74 195.336 382.019C193.414 372.298 182.336 349.519 184.836 348.019C187.336 346.519 198.417 359.105 204.836 363.019C211.256 366.933 213.88 367.99 219.836 371.019C225.792 374.048 230.833 377.999 235.336 378.519C239.84 379.039 237.804 379.056 241.336 378.519C244.869 377.982 249.736 376.082 252.336 373.019C254.936 369.956 254.901 368.384 255.836 365.519C256.772 362.654 256.785 362.221 257.336 358.519C257.888 354.817 257.739 351.206 257.836 346.519C257.934 341.832 258.511 340.593 257.836 334.519C257.162 328.445 253.793 321.908 252.336 316.019C250.88 310.13 247.635 307.377 249.836 304.519C252.038 301.66 254.1 304.309 255.836 301.519C257.573 298.729 252.747 295.14 252.336 292.019C251.925 288.897 251.254 284.946 249.836 275.019C248.336 264.519 245.663 255.704 241.336 242.019C237.01 228.334 234.465 222.417 231.836 215.519C229.208 208.62 229.887 210.235 228.336 206.519C226.786 202.803 226.611 200.24 223.836 196.519C221.061 192.798 218.133 191.386 213.836 188.519C209.54 185.652 206.35 184.136 201.836 182.019C197.323 179.902 196.175 179.326 190.836 177.519C185.498 175.712 179.495 174.952 174.336 173.519C169.178 172.086 167.071 171.967 164.336 170.519C161.602 169.07 161.303 169.688 159.836 167.519C158.37 165.35 159.704 161.818 158.336 159.519C156.968 157.22 156.998 157.286 155.336 156.019C153.675 154.752 152.939 153.45 151.336 153.019C149.734 152.587 150.277 153.019 147.836 153.019C145.396 153.019 144.098 155.409 138.836 153.019C133.574 150.629 137.844 138.233 138.836 130.519C142.124 104.96 145.038 118.865 159.836 109.519C162.991 107.527 162.234 105.427 164.336 104.019C166.438 102.61 167.864 103.114 169.836 102.019C171.809 100.924 171.852 101.492 174.336 98.5189C176.821 95.5456 178.251 89.1194 178.836 85.0189C179.422 80.9184 179.857 80.45 180.336 77.5189C180.816 74.5878 180.75 73.2406 181.336 70.0189C181.923 66.7972 181.836 62.5189 181.336 61.0189C180.836 59.5189 179.068 61.0475 178.836 59.0189C178.605 56.9903 179.907 53.9527 180.336 51.0189C180.766 48.0852 180.93 45.4859 180.336 42.0189C179.743 38.5519 178.54 36.4383 177.336 33.5189C176.132 30.5996 176.071 30.0441 174.336 27.0189C172.602 23.9938 170.684 21.5587 167.836 18.5189C164.989 15.4792 163.075 13.9547 159.836 11.5189C156.598 9.08319 155.056 7.83254 151.336 6.01893C147.617 4.20533 145.992 3.7886 140.836 2.51893C135.681 1.24926 130.551 0.357203 124.836 0.518934C119.122 0.680665 116.526 1.39411 111.836 2.51893C107.147 3.64376 105.154 4.27754 100.836 6.01893C96.5189 7.76032 93.8453 9.05493 89.8364 11.5189L89.5796 11.6767C85.7247 14.0455 83.3821 15.485 80.3364 18.5189C77.2236 21.6196 75.6967 23.6023 73.3364 26.5189C70.9761 29.4355 70.521 30.608 68.3364 33.5189C66.1518 36.4298 64.6896 38.5874 62.8364 42.0189C60.9831 45.4505 60.0767 47.6823 58.8364 51.0189C57.596 54.3556 57.3185 55.7007 56.3364 59.0189C55.3542 62.3371 54.0999 65.2311 53.8364 68.0189C53.5729 70.8067 53.2712 71.4365 53.8364 73.0189C54.4015 74.6014 56.2332 74.8947 55.8364 76.0189C55.4396 77.1432 56.1453 75.2719 53.8364 77.5189C51.5275 79.766 53.1989 86.7198 53.8364 91.5189C54.4738 96.318 54.9622 100.21 55.8364 104.019C56.7106 107.828 55.9418 108.554 58.3364 111.019C60.7309 113.484 63.9245 111.946 66.3364 113.519C68.7482 115.092 68.6704 117.197 70.8364 118.019C73.0024 118.841 74.2279 118.512 76.3364 118.019Z" stroke="black"/>
</svg>
